<svg width="21" height="21" viewBox="0 0 21 21" fill="none" xmlns="http://www.w3.org/2000/svg">
<path d="M14.4375 6.5625V8.53125C14.4375 8.7053 14.3684 8.87222 14.2453 8.99529C14.1222 9.11836 13.9553 9.1875 13.7812 9.1875H13.125V6.5625H7.875V9.1875H7.21875C7.0447 9.1875 6.87778 9.11836 6.75471 8.99529C6.63164 8.87222 6.5625 8.7053 6.5625 8.53125V6.5625H3.9375V18.375H17.0625V6.5625H14.4375ZM6.5625 5.25C6.5625 4.20571 6.97734 3.20419 7.71577 2.46577C8.45419 1.72734 9.45571 1.3125 10.5 1.3125C11.5443 1.3125 12.5458 1.72734 13.2842 2.46577C14.0227 3.20419 14.4375 4.20571 14.4375 5.25H17.7188C17.8928 5.25 18.0597 5.31914 18.1828 5.44221C18.3059 5.56528 18.375 5.7322 18.375 5.90625V19.0312C18.375 19.2053 18.3059 19.3722 18.1828 19.4953C18.0597 19.6184 17.8928 19.6875 17.7188 19.6875H3.28125C3.1072 19.6875 2.94028 19.6184 2.81721 19.4953C2.69414 19.3722 2.625 19.2053 2.625 19.0312V5.90625C2.625 5.7322 2.69414 5.56528 2.81721 5.44221C2.94028 5.31914 3.1072 5.25 3.28125 5.25H6.5625ZM7.875 5.25H13.125C13.125 4.55381 12.8484 3.88613 12.3562 3.39384C11.8639 2.90156 11.1962 2.625 10.5 2.625C9.80381 2.625 9.13613 2.90156 8.64384 3.39384C8.15156 3.88613 7.875 4.55381 7.875 5.25Z" fill="#705B4F"/>
<path d="M3.9375 14.4375H17.0625V15.75H3.9375V14.4375Z" fill="#705B4F"/>
</svg>
