<svg width="25" height="25" viewBox="0 0 25 25" fill="none" xmlns="http://www.w3.org/2000/svg">
<path fill-rule="evenodd" clip-rule="evenodd" d="M7.77605 1.11044C8.99792 1.05419 9.3875 1.04169 12.5 1.04169C15.6125 1.04169 16.0021 1.05523 17.2229 1.11044C18.4438 1.16565 19.2771 1.36044 20.0063 1.64273C20.7698 1.93127 21.4625 2.38231 22.0354 2.96565C22.6188 3.53752 23.0688 4.22919 23.3563 4.99377C23.6396 5.72294 23.8333 6.55627 23.8896 7.77502C23.9458 8.99898 23.9583 9.38856 23.9583 12.5C23.9583 15.6125 23.9448 16.0021 23.8896 17.224C23.8344 18.4427 23.6396 19.2761 23.3563 20.0052C23.0687 20.7699 22.618 21.4627 22.0354 22.0354C21.4625 22.6188 20.7698 23.0688 20.0063 23.3563C19.2771 23.6396 18.4438 23.8334 17.225 23.8896C16.0021 23.9459 15.6125 23.9584 12.5 23.9584C9.3875 23.9584 8.99792 23.9448 7.77605 23.8896C6.5573 23.8344 5.72396 23.6396 4.9948 23.3563C4.23013 23.0687 3.53732 22.618 2.96459 22.0354C2.38165 21.4632 1.93054 20.7707 1.64271 20.0063C1.36042 19.2771 1.16667 18.4438 1.11042 17.225C1.05417 16.0011 1.04167 15.6115 1.04167 12.5C1.04167 9.38752 1.05521 8.99794 1.11042 7.7771C1.16563 6.55627 1.36042 5.72294 1.64271 4.99377C1.93097 4.22927 2.38242 3.5368 2.96563 2.9646C3.53755 2.38179 4.22966 1.93069 4.99376 1.64273C5.72292 1.36044 6.55626 1.16669 7.775 1.11044H7.77605ZM17.1302 3.17294C15.9219 3.11773 15.5594 3.10627 12.5 3.10627C9.44063 3.10627 9.07813 3.11773 7.8698 3.17294C6.75209 3.22398 6.14584 3.41044 5.74167 3.56773C5.2073 3.77606 4.82501 4.02294 4.42396 4.42398C4.0438 4.79382 3.75123 5.24406 3.56771 5.74169C3.41042 6.14585 3.22396 6.7521 3.17292 7.86981C3.11771 9.07815 3.10626 9.44065 3.10626 12.5C3.10626 15.5594 3.11771 15.9219 3.17292 17.1302C3.22396 18.2479 3.41042 18.8542 3.56771 19.2584C3.75105 19.7552 4.04376 20.2063 4.42396 20.5761C4.79376 20.9563 5.2448 21.249 5.74167 21.4323C6.14584 21.5896 6.75209 21.7761 7.8698 21.8271C9.07813 21.8823 9.43959 21.8938 12.5 21.8938C15.5604 21.8938 15.9219 21.8823 17.1302 21.8271C18.2479 21.7761 18.8542 21.5896 19.2583 21.4323C19.7927 21.224 20.175 20.9771 20.576 20.5761C20.9563 20.2063 21.249 19.7552 21.4323 19.2584C21.5896 18.8542 21.776 18.2479 21.8271 17.1302C21.8823 15.9219 21.8938 15.5594 21.8938 12.5C21.8938 9.44065 21.8823 9.07815 21.8271 7.86981C21.776 6.7521 21.5896 6.14585 21.4323 5.74169C21.224 5.20731 20.9771 4.82502 20.576 4.42398C20.2062 4.04384 19.7559 3.75128 19.2583 3.56773C18.8542 3.41044 18.2479 3.22398 17.1302 3.17294ZM11.0365 16.0323C11.8538 16.3726 12.7639 16.4185 13.6114 16.1622C14.4588 15.906 15.191 15.3635 15.6829 14.6274C16.1748 13.8912 16.3959 13.0072 16.3084 12.1262C16.2209 11.2452 15.8302 10.4219 15.2031 9.7969C14.8034 9.39739 14.32 9.09149 13.7879 8.90121C13.2557 8.71094 12.688 8.64102 12.1255 8.69649C11.5631 8.75197 11.02 8.93145 10.5352 9.22203C10.0505 9.51261 9.6362 9.90705 9.3222 10.3769C9.00819 10.8469 8.80228 11.3805 8.71929 11.9396C8.6363 12.4986 8.67829 13.0691 8.84223 13.6099C9.00618 14.1508 9.28801 14.6486 9.66742 15.0674C10.0468 15.4863 10.5144 15.8158 11.0365 16.0323ZM8.33542 8.33544C8.88232 7.78854 9.53159 7.35471 10.2461 7.05873C10.9607 6.76275 11.7266 6.61041 12.5 6.61041C13.2734 6.61041 14.0393 6.76275 14.7539 7.05873C15.4684 7.35471 16.1177 7.78854 16.6646 8.33544C17.2115 8.88234 17.6453 9.5316 17.9413 10.2462C18.2373 10.9607 18.3896 11.7266 18.3896 12.5C18.3896 13.2735 18.2373 14.0393 17.9413 14.7539C17.6453 15.4684 17.2115 16.1177 16.6646 16.6646C15.5601 17.7691 14.062 18.3896 12.5 18.3896C10.938 18.3896 9.43994 17.7691 8.33542 16.6646C7.23091 15.5601 6.61039 14.062 6.61039 12.5C6.61039 10.938 7.23091 9.43995 8.33542 8.33544ZM19.6958 7.48752C19.8314 7.35968 19.9399 7.20594 20.0149 7.03541C20.0899 6.86488 20.13 6.68103 20.1327 6.49474C20.1354 6.30845 20.1008 6.12351 20.0307 5.95086C19.9607 5.77822 19.8567 5.62139 19.725 5.48964C19.5932 5.3579 19.4364 5.25393 19.2637 5.18389C19.0911 5.11385 18.9062 5.07916 18.7199 5.08188C18.5336 5.08459 18.3497 5.12466 18.1792 5.1997C18.0087 5.27475 17.8549 5.38324 17.7271 5.51877C17.4785 5.78234 17.3423 6.13244 17.3476 6.49474C17.3529 6.85704 17.4992 7.20302 17.7554 7.45923C18.0116 7.71544 18.3576 7.86172 18.7199 7.867C19.0822 7.87228 19.4323 7.73616 19.6958 7.48752Z" fill="black" fill-opacity="0.59"/>
</svg>
