<svg width="26" height="26" viewBox="0 0 26 26" fill="none" xmlns="http://www.w3.org/2000/svg">
<path d="M13 22.75C11.6317 21.5829 10.3634 20.3033 9.20835 18.9248C7.47502 16.8545 5.41669 13.7714 5.41669 10.8334C5.41594 9.33289 5.86032 7.86593 6.69361 6.61813C7.52689 5.37033 8.71161 4.39776 10.0978 3.82353C11.4841 3.2493 13.0095 3.09921 14.4811 3.39225C15.9526 3.68529 17.3042 4.4083 18.3647 5.46977C19.0708 6.1727 19.6304 7.00868 20.0112 7.92934C20.3921 8.85 20.5865 9.83704 20.5834 10.8334C20.5834 13.7714 18.525 16.8545 16.7917 18.9248C15.6366 20.3033 14.3683 21.5829 13 22.75ZM13 7.58335C12.1381 7.58335 11.3114 7.92576 10.7019 8.53525C10.0924 9.14475 9.75002 9.9714 9.75002 10.8334C9.75002 11.6953 10.0924 12.522 10.7019 13.1314C11.3114 13.7409 12.1381 14.0834 13 14.0834C13.862 14.0834 14.6886 13.7409 15.2981 13.1314C15.9076 12.522 16.25 11.6953 16.25 10.8334C16.25 9.9714 15.9076 9.14475 15.2981 8.53525C14.6886 7.92576 13.862 7.58335 13 7.58335Z" fill="#82746C"/>
</svg>
