<svg width="25" height="25" viewBox="0 0 25 25" fill="none" xmlns="http://www.w3.org/2000/svg">
<path d="M24.6281 5.14269C23.7583 5.5281 22.824 5.78852 21.8417 5.90623C22.8552 5.29976 23.6135 4.34526 23.975 3.22081C23.0228 3.78643 21.9806 4.18456 20.8938 4.3979C20.1629 3.61755 19.1949 3.10032 18.1399 2.92651C17.085 2.75271 16.0022 2.93205 15.0596 3.4367C14.1171 3.94135 13.3675 4.74306 12.9272 5.71738C12.487 6.69169 12.3808 7.78409 12.625 8.82498C10.6955 8.7281 8.80795 8.22659 7.08482 7.353C5.36169 6.47942 3.8415 5.25327 2.62292 3.75415C2.20625 4.4729 1.96667 5.30623 1.96667 6.19373C1.9662 6.99268 2.16295 7.7794 2.53946 8.48408C2.91596 9.18875 3.46059 9.7896 4.125 10.2333C3.35446 10.2088 2.60091 10.0006 1.92709 9.62602V9.68852C1.92701 10.8091 2.31462 11.8952 3.02415 12.7625C3.73368 13.6298 4.72143 14.2249 5.81979 14.4469C5.10498 14.6403 4.35556 14.6688 3.62813 14.5302C3.93802 15.4944 4.54166 16.3375 5.35455 16.9416C6.16744 17.5456 7.14887 17.8804 8.16146 17.8989C6.44254 19.2483 4.31968 19.9803 2.13438 19.9771C1.74727 19.9772 1.3605 19.9546 0.976044 19.9094C3.19425 21.3356 5.7764 22.0925 8.41354 22.0896C17.3406 22.0896 22.2208 14.6958 22.2208 8.28331C22.2208 8.07498 22.2156 7.86456 22.2063 7.65623C23.1555 6.96974 23.9749 6.11966 24.626 5.14581L24.6281 5.14269Z" fill="black" fill-opacity="0.59"/>
</svg>
