<svg width="32" height="34" viewBox="0 0 32 34" fill="none" xmlns="http://www.w3.org/2000/svg">
<g clip-path="url(#clip0_1_114)">
<path d="M31.3335 9.21828C31.1524 8.53152 30.7994 7.90977 30.3122 7.41911C29.8113 6.91337 29.1973 6.55159 28.5282 6.36794C26.0242 5.66669 15.9922 5.66669 15.9922 5.66669C11.81 5.61614 7.62878 5.8385 3.47221 6.33253C2.80313 6.52974 2.1903 6.8996 1.68821 7.40919C1.19488 7.91353 0.837546 8.53544 0.650879 9.21686C0.20247 11.7835 -0.0153981 14.3896 0.000212559 17C-0.0157874 19.6081 0.201546 22.2134 0.650879 24.7832C0.833546 25.4618 1.18955 26.0809 1.68421 26.5809C2.17888 27.081 2.79488 27.4423 3.47221 27.6335C6.00955 28.3334 15.9922 28.3334 15.9922 28.3334C20.1798 28.384 24.3663 28.1616 28.5282 27.6675C29.1973 27.4839 29.8113 27.1221 30.3122 26.6164C30.7992 26.1258 31.1518 25.504 31.3322 24.8172C31.7923 22.2515 32.0161 19.6444 32.0002 17.0326C32.0348 14.4098 31.8114 11.7903 31.3335 9.21686V9.21828ZM12.8029 21.8507V12.1508L21.1495 17.0014L12.8029 21.8507Z" fill="black" fill-opacity="0.59"/>
</g>
<defs>
<clipPath id="clip0_1_114">
<rect width="32" height="34" fill="white"/>
</clipPath>
</defs>
</svg>
